<?xml version="1.0" encoding="utf-8" ?><svg xmlns="http://www.w3.org/2000/svg" xmlns:xlink="http://www.w3.org/1999/xlink" width="306" height="266" viewBox="0 0 306 266"><path d="M146.013 35.9909C200.728 31.3963 248.761 72.1389 253.154 126.871C257.547 181.603 216.628 229.485 161.88 233.676C107.416 237.846 59.8372 197.185 55.4671 142.738C51.0969 88.2904 91.5817 40.5616 146.013 35.9909ZM167.58 222.978C171.723 222.533 176.622 222.048 180.645 221.097C218.196 211.906 244.771 177.276 245.331 138.785C245.955 95.8488 214.643 56.3205 170.679 53.198C167.077 52.9421 163.292 52.7134 159.693 53.126L159.553 53.1432C119.892 55.9743 90.0679 86.1418 83.736 124.904C78.8682 154.703 89.5482 184.783 112.694 204.374C124.417 214.296 138.61 220.846 153.936 222.51C158.407 223.02 161.726 223.452 166.314 223.089L167.58 222.978Z"></path><path d="M203.291 116.319C207.602 115.893 214.026 118.015 214.634 122.822C215.93 133.077 215.035 144.179 215.121 154.554C215.156 158.895 211.625 162.183 207.655 163.239C193.065 165.079 195.377 149.52 195.472 139.918C195.556 131.518 192.866 119.386 203.291 116.319Z"></path><path d="M131.312 116.318C149.37 114.65 141.428 140.127 143.196 151.171C144.061 156.577 141.172 161.792 135.376 163.306C128 163.953 123.556 160.012 123.457 152.477C123.341 143.642 123.238 134.717 123.572 125.89C123.749 121.21 126.805 117.516 131.312 116.318Z"></path></svg>