<?xml version="1.0" encoding="utf-8" ?><svg xmlns="http://www.w3.org/2000/svg" xmlns:xlink="http://www.w3.org/1999/xlink" width="1016" height="491" viewBox="0 0 1016 491"><path transform="matrix(0.993157 0 0 0.993927 6.10352e-05 6.10352e-05)" d="M173.227 227.458C174.093 227.342 174.885 227.363 175.739 227.301C227.085 223.565 271.66 264.008 273.591 315.304C274.014 326.539 273.711 338.67 273.719 350.198L273.761 415.616L273.806 450.73C273.809 456.656 274.291 465.192 273.295 470.889C269.847 490.617 244.822 497.584 230.902 483.691C227.422 480.154 224.994 475.721 223.885 470.885C222.458 464.909 223.073 453.803 223.135 447.325C223.229 438.237 223.243 429.147 223.178 420.058C212.944 419.525 198.6 419.957 188.066 419.974L137.317 420C137.263 430.588 137.269 441.177 137.334 451.765C137.346 457.651 137.715 463.878 136.828 469.785C133.632 490.364 109.066 497.414 94.5617 483.388C84.7865 473.936 87.2095 458.62 87.1834 445.881L87.1838 399.922L87.1267 341.376C87.1109 330.609 86.5166 313.449 88.4075 303.352C91.0216 288.991 97.1041 275.485 106.126 264.009C123.523 241.541 145.626 230.918 173.227 227.458ZM136.879 367.569L180.074 367.607C194.134 367.619 209.197 367.344 223.167 367.658C223.29 353.745 224.813 319.849 221.492 307.941C219.587 301.108 215.996 295.084 211.042 290.02C202.956 281.753 191.749 277.264 180.258 276.948C167.365 277.392 156.926 280.676 147.87 290.397C143.222 295.452 139.885 301.571 138.153 308.216C136.307 315.536 136.81 327.709 136.817 335.681L136.879 367.569Z"/><path transform="matrix(0.993157 0 0 0.993927 6.10352e-05 6.10352e-05)" d="M894.667 296.293C901.906 295.83 906.804 296.078 913.296 300.153C916.862 302.391 922.109 308.565 922.715 312.73C924.223 323.099 923.631 335.765 923.655 346.416L923.688 409.231L923.699 448.251C923.721 458.214 925.481 471.615 919.737 479.858C915.669 485.695 910.318 488.758 903.493 490.038C892.734 492.273 878.182 484.276 875.724 473.967C873.583 464.988 874.446 448.654 874.452 438.959L874.496 387.462L874.446 344.204C874.397 324.078 870 302.703 894.667 296.293Z"/><path transform="matrix(0.993157 0 0 0.993927 6.10352e-05 6.10352e-05)" d="M895.361 225.733C909.893 223.34 923.604 233.208 925.948 247.747C928.293 262.286 918.378 275.963 903.831 278.258C889.353 280.542 875.754 270.686 873.421 256.216C871.088 241.746 880.899 228.116 895.361 225.733Z"/><path transform="matrix(0.993157 0 0 0.993927 6.10352e-05 6.10352e-05)" d="M341.58 225.666C338.769 216.325 337.901 203.683 337.633 193.963C336.696 160.014 344.092 125.992 360.243 95.9658C382.185 54.3918 419.754 23.2448 464.674 9.38552C509.117 -3.70189 556.934 1.34064 597.668 23.4104C639.556 46.3128 670.568 84.9882 683.819 130.851C693.062 161.828 695.217 200.565 684.808 231.51C689.586 233.841 693.03 236.57 694.856 241.786C696.753 247.206 695.968 299.653 695.994 309.909C717.271 295.389 742.177 291.283 767.351 295.983C792.322 300.873 814.348 315.435 828.627 336.496C843.256 357.822 848.769 384.105 843.942 409.512C838.822 435.718 823.643 458.876 801.656 474.026C733.292 520.354 641.939 470.451 644.852 387.762C645.818 360.364 643.655 331.476 644.835 303.981C634.084 317.189 614.469 332.539 600.071 341.56C613.951 366.435 619.353 392.223 611.404 420.158C603.969 446.985 586.095 469.713 561.776 483.262C555.093 486.907 547.959 489.656 540.558 491.439C538.486 491.929 531.222 493.31 529.661 494L505.726 494C475.63 487.485 453.618 476.536 436.248 449.461C421.542 426.622 416.57 398.855 422.437 372.332C424.088 364.402 426.755 356.718 430.374 349.471C409.381 336.256 394.837 325.382 378.241 306.284C384.26 318.401 382.596 324.319 382.595 337.408L382.586 375.598L382.55 434.006C382.537 445.209 383.373 463.936 380.994 474.797C379.578 481.262 368.928 489.609 363.022 490.2C348.511 493.921 333.392 483.342 332.31 468.375C331.766 460.857 332.138 451.889 332.14 444.019L332.161 399.165L332.18 348.184C332.181 339.213 331.234 318.668 334.08 311.217C336.46 305.136 341.164 300.253 347.151 297.645C358.693 292.591 369.042 296.225 377.245 305.302L377.393 304.861C375.66 301.84 373.348 299.237 371.294 296.403C361.054 282.271 354.415 268.103 347.92 252.018C344.269 260.159 340.411 266.398 331.607 269.837C324.968 272.414 317.575 272.234 311.071 269.336C304.772 266.455 299.338 260.208 297.032 253.683C294.681 247.02 295.06 239.697 298.086 233.312C306.556 215.753 327.046 213.471 341.58 225.666ZM523.457 36.752C484.943 40.108 449.305 58.5136 424.274 87.9762C341.07 186.711 407.684 346.455 542.093 339.086C622.191 333.112 682.491 256.856 677.469 177.652C672.422 98.0424 606.737 29.9231 524.055 36.7001L523.457 36.752ZM751.025 439.193C776.894 436.957 796.029 414.139 793.722 388.277C791.416 362.416 768.546 343.343 742.69 345.719C716.932 348.086 697.948 370.849 700.245 396.612C702.542 422.375 725.255 441.421 751.025 439.193ZM481.535 368.002C466.324 392.357 470.121 417.845 494.27 434.437C514.924 447.914 544.122 440.276 557.291 419.861C563.648 409.973 565.796 397.958 563.262 386.479C562.19 381.611 554.899 363.955 549.746 364.179C529.896 368.997 501.638 372.311 481.535 368.002Z"/><path transform="matrix(0.993157 0 0 0.993927 6.10352e-05 6.10352e-05)" d="M605.606 148.979C612.658 148.409 622.07 154.241 623.113 161.6C624.416 170.797 623.67 180.603 623.801 189.926C623.928 199.082 623.959 208.427 623.578 217.569C623.169 227.249 616.737 232.054 607.742 233.749C582.557 233.406 590.036 206.825 588.815 190.314C588.873 188.26 588.744 186.115 588.822 184.069C589.425 168.263 585.047 152.647 605.606 148.979Z"/><path transform="matrix(0.993157 0 0 0.993927 6.10352e-05 6.10352e-05)" d="M475.034 149.453C486.578 147.891 495.639 155.485 495.689 167.05C495.76 183.693 495.6 200.551 495.652 217.202C495.678 225.754 489.533 230.788 481.893 233.282C470.22 234.962 461.267 227.569 460.859 215.765C460.371 201.65 460.62 187.524 460.585 173.404C460.555 161.409 461.874 153.001 475.034 149.453Z"/></svg>